<!--
 Copyright 2022 Google LLC
 
 Licensed under the Apache License, Version 2.0 (the "License");
 you may not use this file except in compliance with the License.
 You may obtain a copy of the License at
 
     https://www.apache.org/licenses/LICENSE-2.0
 
 Unless required by applicable law or agreed to in writing, software
 distributed under the License is distributed on an "AS IS" BASIS,
 WITHOUT WARRANTIES OR CONDITIONS OF ANY KIND, either express or implied.
 See the License for the specific language governing permissions and
 limitations under the License.
-->

<svg viewBox="0 0 15 15" fill="none" xmlns="http://www.w3.org/2000/svg" width="15" height="15">
  <path d="M3 13v.5h1V13H3zm8 0v.5h1V13h-1zm-7 0v-.5H3v.5h1zm2.5-3h2V9h-2v1zm4.5 2.5v.5h1v-.5h-1zM8.5 10a2.5 2.5 0 012.5 2.5h1A3.5 3.5 0 008.5 9v1zM4 12.5A2.5 2.5 0 016.5 10V9A3.5 3.5 0 003 12.5h1zM7.5 3A2.5 2.5 0 005 5.5h1A1.5 1.5 0 017.5 4V3zM10 5.5A2.5 2.5 0 007.5 3v1A1.5 1.5 0 019 5.5h1zM7.5 8A2.5 2.5 0 0010 5.5H9A1.5 1.5 0 017.5 7v1zm0-1A1.5 1.5 0 016 5.5H5A2.5 2.5 0 007.5 8V7zm0 7A6.5 6.5 0 011 7.5H0A7.5 7.5 0 007.5 15v-1zM14 7.5A6.5 6.5 0 017.5 14v1A7.5 7.5 0 0015 7.5h-1zM7.5 1A6.5 6.5 0 0114 7.5h1A7.5 7.5 0 007.5 0v1zm0-1A7.5 7.5 0 000 7.5h1A6.5 6.5 0 017.5 1V0z" fill="currentColor"></path>
</svg>